<svg width="250" height="54" xmlns="http://www.w3.org/2000/svg"><g fill="none" fill-rule="evenodd"><rect stroke="#EA532A" fill="#FFF" x=".5" y=".5" width="249" height="53" rx="10"/><text font-family="Helvetica-Bold, Helvetica" font-size="9" font-weight="bold" fill="#EA532A">
          <tspan x="53" y="20">FEATURED ON</tspan>
        </text><text font-family="Helvetica-Bold, Helvetica" font-size="21" font-weight="bold" fill="#EA532A">
          <tspan x="52" y="40">Product Hunt</tspan>
        </text><g fill="#EA532A"><path d="M227.002 23H216l5.501-10z"/><text font-family="Helvetica-Bold, Helvetica" font-size="13" font-weight="bold" transform="translate(201 13)">
          <tspan x="9.1" y="27">132</tspan>
        </text></g><path d="M42 27.5C42 36.06 35.06 43 26.5 43 17.94 43 11 36.06 11 27.5 11 18.94 17.94 12 26.5 12 35.06 12 42 18.94 42 27.5" fill="#EA532A"/><path d="M28.433 27.956h-4.34v-4.65h4.34c1.269 0 2.298 1.04 2.298 2.325 0 1.284-1.03 2.325-2.298 2.325m0-7.75h-7.404v15.5h3.064v-4.65h4.34c2.96 0 5.361-2.429 5.361-5.425s-2.4-5.425-5.361-5.425" fill="#FFF"/></g></svg>