<svg width="71" height="71" fill="none" xmlns="http://www.w3.org/2000/svg"><path d="m44.425 47.902-.312-.312-.348.271c-3.923 3.05-8.836 4.888-14.18 4.888-12.773 0-23.167-10.393-23.167-23.166S16.812 6.416 29.585 6.416c12.773 0 23.166 10.394 23.166 23.167 0 5.344-1.838 10.257-4.891 14.183l-.271.348.312.312 12.651 12.651-3.476 3.476-12.65-12.65Zm3.41-18.32c0-10.065-8.185-18.25-18.25-18.25-10.066 0-18.25 8.185-18.25 18.25 0 10.066 8.184 18.25 18.25 18.25 10.065 0 18.25-8.184 18.25-18.25Z" fill="#5B4EEA" stroke="#fff"/></svg>